<svg width="1208" height="234" viewBox="0 0 1208 234" fill="none" xmlns="http://www.w3.org/2000/svg">
<path d="M98.0893 82.4717L117 24.2705L135.911 82.4717C137.049 85.9738 140.312 88.345 143.995 88.345L205.191 88.345L155.682 124.315C152.703 126.48 151.456 130.316 152.594 133.819L171.505 192.02L121.996 156.049C119.017 153.885 114.983 153.885 112.004 156.049L62.495 192.02L81.4057 133.819C82.5436 130.316 81.297 126.48 78.3179 124.315L28.809 88.345L90.0053 88.345C93.6877 88.345 96.9514 85.9738 98.0893 82.4717Z" fill="#FAFF00" stroke="black" stroke-width="15"/>
<path d="M341.147 82.4717L360.058 24.2705L378.969 82.4717C380.107 85.9738 383.37 88.345 387.053 88.345L448.249 88.345L398.74 124.315C395.761 126.48 394.515 130.316 395.652 133.819L414.563 192.02L365.054 156.049C362.075 153.885 358.041 153.885 355.062 156.049L305.553 192.02L324.464 133.819C325.602 130.316 324.355 126.48 321.376 124.315L271.867 88.345L333.063 88.345C336.746 88.345 340.009 85.9738 341.147 82.4717Z" fill="#FAFF00" stroke="black" stroke-width="15"/>
<path d="M584.787 82.487L603.871 24.1298L622.955 82.487C624.097 85.9814 627.357 88.345 631.034 88.345L692.659 88.345L642.85 124.301C639.852 126.466 638.597 130.32 639.746 133.835L658.797 192.09L608.846 156.031C605.876 153.887 601.866 153.887 598.896 156.031L548.945 192.09L567.996 133.835C569.145 130.321 567.89 126.466 564.892 124.301L515.083 88.345L576.708 88.345C580.385 88.345 583.645 85.9814 584.787 82.487Z" fill="#FAFF00" stroke="black" stroke-width="15"/>
<path d="M828.773 82.4717L847.684 24.2705L866.595 82.4717C867.733 85.9738 870.996 88.345 874.679 88.345L935.875 88.345L886.366 124.315C883.387 126.48 882.14 130.316 883.278 133.819L902.189 192.02L852.68 156.049C849.701 153.885 845.667 153.885 842.688 156.049L793.179 192.02L812.09 133.819C813.228 130.316 811.981 126.48 809.002 124.315L759.493 88.345L820.689 88.345C824.372 88.345 827.635 85.9738 828.773 82.4717Z" fill="white" stroke="black" stroke-width="15"/>
<path d="M1071.83 82.4717L1090.74 24.2705L1109.65 82.4717C1110.79 85.9738 1114.05 88.345 1117.74 88.345L1178.93 88.345L1129.42 124.315C1126.45 126.48 1125.2 130.316 1126.34 133.819L1145.25 192.02L1095.74 156.049C1092.76 153.885 1088.73 153.885 1085.75 156.049L1036.24 192.02L1055.15 133.819C1056.29 130.316 1055.04 126.48 1052.06 124.315L1002.55 88.345L1063.75 88.345C1067.43 88.345 1070.69 85.9738 1071.83 82.4717Z" fill="#FEFEFE" stroke="black" stroke-width="15"/>
</svg>
