<svg width="1340" height="355" viewBox="0 0 1340 355" fill="none" xmlns="http://www.w3.org/2000/svg">
<path d="M106.133 140.588L127.373 75.2197L148.612 140.588C149.75 144.09 153.014 146.462 156.696 146.462H225.429L169.823 186.862C166.844 189.026 165.597 192.863 166.735 196.365L187.975 261.733L132.369 221.333C129.39 219.169 125.356 219.169 122.377 221.333L66.7708 261.733L88.0103 196.365C89.1482 192.863 87.9016 189.026 84.9225 186.862L29.3167 146.462H98.0492C101.732 146.462 104.995 144.09 106.133 140.588Z" fill="#FAFF00" stroke="black" stroke-width="15"/>
<path d="M370.74 140.588L391.979 75.2197L413.219 140.588C414.357 144.09 417.62 146.462 421.303 146.462H490.035L434.429 186.862C431.45 189.026 430.204 192.863 431.342 196.365L452.581 261.733L396.975 221.333C393.996 219.169 389.962 219.169 386.983 221.333L331.377 261.733L352.617 196.365C353.755 192.863 352.508 189.026 349.529 186.862L293.923 146.462H362.656C366.338 146.462 369.602 144.09 370.74 140.588Z" fill="#FAFF00" stroke="black" stroke-width="15"/>
<path d="M635.98 140.604L657.407 75.079L678.835 140.604C679.978 144.098 683.237 146.462 686.914 146.462H756.124L700.179 186.848C697.181 189.012 695.926 192.867 697.075 196.382L718.469 261.804L662.382 221.315C659.412 219.171 655.402 219.171 652.432 221.315L596.345 261.804L617.739 196.382C618.889 192.867 617.634 189.012 614.636 186.848L558.69 146.462H627.901C631.577 146.462 634.837 144.098 635.98 140.604Z" fill="#FAFF00" stroke="black" stroke-width="15"/>
<path d="M901.596 140.588L922.836 75.2197L944.075 140.588C945.213 144.09 948.477 146.462 952.159 146.462H1020.89L965.286 186.862C962.307 189.026 961.06 192.863 962.198 196.365L983.438 261.733L927.832 221.333C924.853 219.169 920.819 219.169 917.839 221.333L862.234 261.733L883.473 196.365C884.611 192.863 883.364 189.026 880.385 186.862L824.78 146.462H893.512C897.195 146.462 900.458 144.09 901.596 140.588Z" fill="#FAFF00" stroke="black" stroke-width="15"/>
<mask id="mask0_222_108" style="mask-type:alpha" maskUnits="userSpaceOnUse" x="1068" y="53" width="239" height="227">
<path d="M1161.45 139.043L1187.44 59.0394L1213.44 139.043C1213.91 140.485 1215.25 141.462 1216.77 141.462H1300.89L1232.83 190.907C1231.6 191.798 1231.09 193.378 1231.56 194.82L1257.55 274.824L1189.5 225.378C1188.27 224.487 1186.61 224.487 1185.38 225.378L1117.33 274.823L1143.32 194.82C1143.79 193.378 1143.28 191.798 1142.05 190.907L1074 141.462H1158.12C1159.63 141.462 1160.98 140.485 1161.45 139.043Z" fill="white" stroke="black" stroke-width="5"/>
</mask>
<g mask="url(#mask0_222_108)">
<rect x="1052.57" y="30.3008" width="141.551" height="282.894" fill="#FAFF00" stroke="black" stroke-width="15"/>
<path d="M1186 53.5L1158.5 139H1068L1140.5 192.5L1113 280L1187.5 227" stroke="black" stroke-width="7"/>
<path d="M1186 225.5V216L1119.5 270.5L1147 191.5L1079 142H1160L1186 64" stroke="black" stroke-width="9"/>
</g>
<mask id="mask1_222_108" style="mask-type:alpha" maskUnits="userSpaceOnUse" x="1186" y="0" width="154" height="355">
<rect x="1189.12" y="2.5" width="147.847" height="350" fill="white" stroke="black" stroke-width="5"/>
</mask>
<g mask="url(#mask1_222_108)">
<path d="M1166.2 140.588L1187.44 75.2197L1208.68 140.588C1209.82 144.09 1213.08 146.462 1216.77 146.462H1285.5L1229.89 186.862C1226.91 189.026 1225.67 192.863 1226.8 196.365L1248.04 261.733L1192.44 221.333C1189.46 219.169 1185.42 219.169 1182.45 221.333L1126.84 261.733L1148.08 196.365C1149.22 192.863 1147.97 189.026 1144.99 186.862L1089.39 146.462H1158.12C1161.8 146.462 1165.06 144.09 1166.2 140.588Z" fill="white" stroke="black" stroke-width="15"/>
</g>
</svg>
