<svg width="1322" height="256" viewBox="0 0 1322 256" fill="none" xmlns="http://www.w3.org/2000/svg">
<path d="M106.62 90.0725L128 24.2705L149.38 90.0725C150.518 93.5747 153.782 95.9458 157.464 95.9458H226.653L170.678 136.614C167.699 138.778 166.452 142.615 167.59 146.117L188.971 211.919L132.996 171.251C130.017 169.087 125.983 169.087 123.004 171.251L67.0293 211.919L88.4097 146.117C89.5476 142.615 88.301 138.778 85.3219 136.614L29.3474 95.9458H98.5357C102.218 95.9458 105.482 93.5746 106.62 90.0725Z" fill="#FAFF00" stroke="black" stroke-width="15"/>
<path d="M372.53 90.0725L393.91 24.2705L415.291 90.0725C416.428 93.5747 419.692 95.9458 423.374 95.9458H492.563L436.588 136.614C433.609 138.778 432.363 142.615 433.5 146.117L454.881 211.919L398.906 171.251C395.927 169.087 391.893 169.087 388.914 171.251L332.939 211.919L354.32 146.117C355.458 142.615 354.211 138.778 351.232 136.614L295.258 95.9458H364.446C368.128 95.9458 371.392 93.5746 372.53 90.0725Z" fill="#FAFF00" stroke="black" stroke-width="15"/>
<path d="M639.076 90.0878L660.645 24.1298L682.214 90.0878C683.357 93.5821 686.617 95.9458 690.293 95.9458H759.963L703.646 136.6C700.648 138.764 699.393 142.619 700.542 146.134L722.078 211.989L665.62 171.233C662.65 169.089 658.64 169.089 655.67 171.233L599.212 211.989L620.748 146.134C621.897 142.619 620.642 138.764 617.644 136.6L561.328 95.9458H630.997C634.673 95.9458 637.933 93.5822 639.076 90.0878Z" fill="#FAFF00" stroke="black" stroke-width="15"/>
<path d="M906.001 90.0725L927.381 24.2705L948.761 90.0725C949.899 93.5747 953.163 95.9458 956.845 95.9458H1026.03L970.059 136.614C967.08 138.778 965.833 142.615 966.971 146.117L988.352 211.919L932.377 171.251C929.398 169.087 925.364 169.087 922.385 171.251L866.41 211.919L887.791 146.117C888.928 142.615 887.682 138.778 884.703 136.614L828.728 95.9458H897.917C901.599 95.9458 904.863 93.5746 906.001 90.0725Z" fill="#FAFF00" stroke="black" stroke-width="15"/>
<path d="M1171.91 90.0725L1193.29 24.2705L1214.67 90.0725C1215.81 93.5747 1219.07 95.9458 1222.76 95.9458H1291.94L1235.97 136.614C1232.99 138.778 1231.74 142.615 1232.88 146.117L1254.26 211.919L1198.29 171.251C1195.31 169.087 1191.27 169.087 1188.29 171.251L1132.32 211.919L1153.7 146.117C1154.84 142.615 1153.59 138.778 1150.61 136.614L1094.64 95.9458H1163.83C1167.51 95.9458 1170.77 93.5746 1171.91 90.0725Z" fill="#FAFF00" stroke="black" stroke-width="15"/>
</svg>
